SplineFontDB: 3.0
FontName: 
FullName: Lightshadow
FamilyName: Lightshadow
Weight: 
Copyright: 
UComments: "2018-3-29: Created with FontForge (http://fontforge.org)"
Version: 001.000
ItalicAngle: 0
UnderlinePosition: -80
UnderlineWidth: 40
Ascent: 800
Descent: 0
InvalidEm: 0
LayerCount: 2
Layer: 0 0 "Back" 1
Layer: 1 0 "Fore" 0
XUID: [1021 711 -1872161615 15714904]
FSType: 0
OS2Version: 0
OS2_WeightWidthSlopeOnly: 0
OS2_UseTypoMetrics: 1
CreationTime: 1522317341
ModificationTime: 1522409200
PfmFamily: 17
TTFWeight: 400
TTFWidth: 5
LineGap: 72
VLineGap: 0
OS2TypoAscent: 0
OS2TypoAOffset: 1
OS2TypoDescent: 0
OS2TypoDOffset: 1
OS2TypoLinegap: 72
OS2WinAscent: 0
OS2WinAOffset: 1
OS2WinDescent: 0
OS2WinDOffset: 1
HheadAscent: 0
HheadAOffset: 1
HheadDescent: 0
HheadDOffset: 1
OS2Vendor: 'PfEd'
MarkAttachClasses: 1
DEI: 91125

StartChar: A
Encoding: 65 65 0
Width: 800
VWidth: 0
Flags: W
HStem: 0 21G<36.2002 163.8 536.2 663.8> 0 21G<36.2002 163.8 536.2 663.8> 200 200<212.198 487.802> 600 200<212.198 487.802>
VStem: -0 200<12.1976 187.802 412.198 587.802> 500 200<12.1976 187.802 412.198 587.802>
LayerCount: 2
Fore
SplineSet
50 800 m 0xbc
 200 800 l 1
 650 800 l 2
 677.599609375 800 700 777.599609375 700 750 c 0
 700 50 l 2
 700 22.400390625 677.599609375 0 650 0 c 0
 550 0 l 2
 522.400390625 0 500 22.400390625 500 50 c 0
 500 150 l 2
 500 177.599609375 477.599609375 200 450 200 c 0
 250 200 l 2
 222.400390625 200 200 177.599609375 200 150 c 0
 200 50 l 2
 200 22.400390625 177.599609375 0 150 0 c 0
 50 0 l 2
 22.400390625 0 -0 22.400390625 -0 50 c 0
 0 300 l 1
 0 400 l 1
 0 600 l 1
 0 750 l 2
 -0 777.599609375 22.400390625 800 50 800 c 0xbc
250 600 m 2
 222.400390625 600 200 577.599609375 200 550 c 0
 200 450 l 2
 200 422.400390625 222.400390625 400 250 400 c 0
 450 400 l 2
 477.599609375 400 500 422.400390625 500 450 c 0
 500 550 l 2
 500 577.599609375 477.599609375 600 450 600 c 0
 250 600 l 2
EndSplineSet
Validated: 5
EndChar

StartChar: B
Encoding: 66 66 1
Width: 800
VWidth: 0
HStem: 0 100<212.198 554.732> 300 100<400 554.732> 400 100<400 454.732> 700 100<212.198 454.732>
VStem: -0 200<112.198 287.802 512.198 687.802> 500 100<544.685 655.315> 600 100<144.685 255.315>
LayerCount: 2
Fore
SplineSet
50 800 m 0xdc
 100 800 l 1
 400 800 l 2
 510.400390625 800 600 710.400390625 600 600 c 0
 600 489.599609375 510.400390625 400 400 400 c 0
 500 400 l 2xdc
 610.400390625 400 700 310.400390625 700 200 c 0xda
 700 89.599609375 610.400390625 0 500 0 c 0
 100 0 l 1
 50 0 l 2
 22.400390625 0 -0 22.400390625 -0 50 c 0
 0 750 l 2
 -0 777.599609375 22.400390625 800 50 800 c 0xdc
250 700 m 2
 222.400390625 700 200 677.599609375 200 650 c 0
 200 550 l 2
 200 522.400390625 222.400390625 500 250 500 c 0
 400 500 l 2xbc
 455.200195312 500 500 544.799804688 500 600 c 0
 500 655.200195312 455.200195312 700 400 700 c 2
 250 700 l 2
250 300 m 2xdc
 222.400390625 300 200 277.599609375 200 250 c 0
 200 150 l 2
 200 122.400390625 222.400390625 100 250 100 c 0
 500 100 l 2xdc
 555.200195312 100 600 144.799804688 600 200 c 0xda
 600 255.200195312 555.200195312 300 500 300 c 0
 250 300 l 2xdc
EndSplineSet
Validated: 5
EndChar

StartChar: C
Encoding: 67 67 2
Width: 800
VWidth: 0
HStem: 0 200<212.198 687.802> 600 200<212.198 687.802>
VStem: 0 200<212.198 587.802>
LayerCount: 2
Fore
SplineSet
50 800 m 0
 200 800 l 1
 650 800 l 2
 677.599609375 800 700 777.599609375 700 750 c 0
 700 650 l 2
 700 622.400390625 677.599609375 600 650 600 c 0
 250 600 l 2
 222.400390625 600 200 577.599609375 200 550 c 0
 200 250 l 2
 200 222.400390625 222.400390625 200 250 200 c 0
 650 200 l 2
 677.599609375 200 700 177.599609375 700 150 c 0
 700 50 l 2
 700 22.400390625 677.599609375 0 650 0 c 0
 50 0 l 2
 22.400390625 0 -0 22.400390625 -0 50 c 0
 0 200 l 1
 0 600 l 1
 0 750 l 2
 -0 777.599609375 22.400390625 800 50 800 c 0
EndSplineSet
Validated: 5
EndChar

StartChar: D
Encoding: 68 68 3
Width: 800
VWidth: 0
HStem: 0 200<212.198 377.825> 600 200<212.198 377.825>
VStem: -0 200<212.198 587.802> 500 200<320.797 479.203>
LayerCount: 2
Fore
SplineSet
50 800 m 0
 200 800 l 1
 300 800 l 2
 520.799804688 800 700 620.799804688 700 400 c 0
 700 179.200195312 520.799804688 0 300 0 c 0
 200 0 l 1
 50 0 l 2
 22.400390625 0 -0 22.400390625 -0 50 c 0
 0 750 l 2
 -0 777.599609375 22.400390625 800 50 800 c 0
250 600 m 2
 222.400390625 600 200 577.599609375 200 550 c 0
 200 250 l 2
 200 222.400390625 222.400390625 200 250 200 c 0
 300 200 l 2
 410.400390625 200 500 289.599609375 500 400 c 0
 500 510.400390625 410.400390625 600 300 600 c 2
 250 600 l 2
EndSplineSet
Validated: 5
EndChar

StartChar: E
Encoding: 69 69 4
Width: 800
VWidth: 0
HStem: 0 200<212.198 687.802> 300 200<212.198 687.802> 600 200<212.198 687.802>
VStem: 0 200<212.198 287.802 512.198 587.802>
CounterMasks: 1 e0
LayerCount: 2
Fore
SplineSet
50 800 m 0
 200 800 l 1
 650 800 l 2
 677.599609375 800 700 777.599609375 700 750 c 0
 700 650 l 2
 700 622.400390625 677.599609375 600 650 600 c 0
 250 600 l 2
 222.400390625 600 200 577.599609375 200 550 c 0
 200 522.400390625 222.400390625 500 250 500 c 0
 650 500 l 2
 677.599609375 500 700 477.599609375 700 450 c 0
 700 350 l 2
 700 322.400390625 677.599609375 300 650 300 c 0
 250 300 l 2
 222.400390625 300 200 277.599609375 200 250 c 0
 200 222.400390625 222.400390625 200 250 200 c 0
 650 200 l 2
 677.599609375 200 700 177.599609375 700 150 c 0
 700 50 l 2
 700 22.400390625 677.599609375 0 650 0 c 0
 50 0 l 2
 22.400390625 0 -0 22.400390625 -0 50 c 0
 0 200 l 1
 0 300 l 1
 0 500 l 1
 0 600 l 1
 0 750 l 2
 -0 777.599609375 22.400390625 800 50 800 c 0
EndSplineSet
Validated: 5
EndChar

StartChar: F
Encoding: 70 70 5
Width: 800
VWidth: 0
HStem: 0 21G<36.2002 163.8> 0 21G<36.2002 163.8> 300 200<212.198 487.802> 600 200<212.198 687.802>
VStem: -0 200<12.1976 287.802 512.198 587.802>
LayerCount: 2
Fore
SplineSet
50 800 m 0xb8
 200 800 l 1
 650 800 l 2
 677.599609375 800 700 777.599609375 700 750 c 0
 700 650 l 2
 700 622.400390625 677.599609375 600 650 600 c 0
 250 600 l 2
 222.400390625 600 200 577.599609375 200 550 c 0
 200 522.400390625 222.400390625 500 250 500 c 0
 450 500 l 2
 477.599609375 500 500 477.599609375 500 450 c 0
 500 350 l 2
 500 322.400390625 477.599609375 300 450 300 c 0
 250 300 l 2
 222.400390625 300 200 277.599609375 200 250 c 0
 200 50 l 2
 200 22.400390625 177.599609375 0 150 0 c 0
 50 0 l 2
 22.400390625 0 -0 22.400390625 -0 50 c 0
 0 300 l 1
 0 500 l 1
 0 600 l 1
 0 750 l 2
 -0 777.599609375 22.400390625 800 50 800 c 0xb8
EndSplineSet
Validated: 5
EndChar

StartChar: G
Encoding: 71 71 6
Width: 800
VWidth: 0
HStem: 0 200<322.175 487.802> 600 200<322.175 687.802>
VStem: -0 200<320.797 479.203> 500 200<212.198 387.802>
LayerCount: 2
Fore
SplineSet
400 800 m 0
 650 800 l 2
 677.599609375 800 700 777.599609375 700 750 c 0
 700 650 l 2
 700 622.400390625 677.599609375 600 650 600 c 0
 400 600 l 2
 289.599609375 600 200 510.400390625 200 400 c 0
 200 289.599609375 289.599609375 200 400 200 c 2
 450 200 l 2
 477.599609375 200 500 222.400390625 500 250 c 0
 500 350 l 2
 500 377.599609375 522.400390625 400 550 400 c 0
 650 400 l 2
 677.599609375 400 700 377.599609375 700 350 c 0
 700 50 l 2
 700 22.400390625 677.599609375 0 650 0 c 0
 500 0 l 1
 400 0 l 2
 179.200195312 0 -0 179.200195312 -0 400 c 0
 -0 620.799804688 179.200195312 800 400 800 c 0
EndSplineSet
Validated: 5
EndChar

StartChar: I
Encoding: 73 73 7
Width: 800
VWidth: 0
HStem: 0 200<12.1976 187.802 512.198 687.802> 600 200<12.1976 187.802 512.198 687.802>
VStem: 200 300<212.198 587.802>
LayerCount: 2
Fore
SplineSet
50 800 m 0
 200 800 l 1
 500 800 l 1
 650 800 l 2
 677.599609375 800 700 777.599609375 700 750 c 0
 700 650 l 2
 700 622.400390625 677.599609375 600 650 600 c 0
 550 600 l 2
 522.400390625 600 500 577.599609375 500 550 c 0
 500 250 l 2
 500 222.400390625 522.400390625 200 550 200 c 0
 650 200 l 2
 677.599609375 200 700 177.599609375 700 150 c 0
 700 50 l 2
 700 22.400390625 677.599609375 0 650 0 c 0
 50 0 l 2
 22.400390625 0 -0 22.400390625 -0 50 c 0
 0 150 l 2
 -0 177.599609375 22.400390625 200 50 200 c 0
 150 200 l 2
 177.599609375 200 200 222.400390625 200 250 c 0
 200 550 l 2
 200 577.599609375 177.599609375 600 150 600 c 0
 50 600 l 2
 22.400390625 600 -0 622.400390625 -0 650 c 0
 0 750 l 2
 -0 777.599609375 22.400390625 800 50 800 c 0
EndSplineSet
Validated: 5
EndChar

StartChar: H
Encoding: 72 72 8
Width: 800
VWidth: 0
HStem: 0 21G<36.2002 163.8 536.2 663.8> 0 21G<36.2002 163.8 536.2 663.8> 300 200<212.198 487.802> 780 20G<36.2002 163.8 536.2 663.8> 780 20G<36.2002 163.8 536.2 663.8>
VStem: -0 200<12.1976 287.802 512.198 787.802> 500 200<12.1976 287.802 512.198 787.802>
LayerCount: 2
Fore
SplineSet
50 800 m 0xb6
 150 800 l 2
 177.599609375 800 200 777.599609375 200 750 c 0
 200 550 l 2
 200 522.400390625 222.400390625 500 250 500 c 0
 450 500 l 2
 477.599609375 500 500 522.400390625 500 550 c 0
 500 750 l 2
 500 777.599609375 522.400390625 800 550 800 c 0
 650 800 l 2
 677.599609375 800 700 777.599609375 700 750 c 0
 700 50 l 2
 700 22.400390625 677.599609375 0 650 0 c 0
 550 0 l 2
 522.400390625 0 500 22.400390625 500 50 c 0
 500 250 l 2
 500 277.599609375 477.599609375 300 450 300 c 0
 250 300 l 2
 222.400390625 300 200 277.599609375 200 250 c 0
 200 50 l 2
 200 22.400390625 177.599609375 0 150 0 c 0
 50 0 l 2
 22.400390625 0 -0 22.400390625 -0 50 c 0
 0 300 l 1
 0 500 l 1
 0 750 l 2
 -0 777.599609375 22.400390625 800 50 800 c 0xb6
EndSplineSet
Validated: 5
EndChar

StartChar: J
Encoding: 74 74 9
Width: 800
VWidth: 0
HStem: 0 200<12.1976 287.802> 600 200<12.1976 287.802 512.198 687.802>
VStem: 300 200<212.198 587.802>
LayerCount: 2
Fore
SplineSet
50 800 m 0
 300 800 l 1
 500 800 l 1
 650 800 l 2
 677.599609375 800 700 777.599609375 700 750 c 0
 700 650 l 2
 700 622.400390625 677.599609375 600 650 600 c 0
 550 600 l 2
 522.400390625 600 500 577.599609375 500 550 c 0
 500 200 l 1
 500 50 l 2
 500 22.400390625 477.599609375 0 450 0 c 0
 50 0 l 2
 22.400390625 0 -0 22.400390625 -0 50 c 0
 0 150 l 2
 -0 177.599609375 22.400390625 200 50 200 c 0
 250 200 l 2
 277.599609375 200 300 222.400390625 300 250 c 0
 300 550 l 2
 300 577.599609375 277.599609375 600 250 600 c 0
 50 600 l 2
 22.400390625 600 -0 622.400390625 -0 650 c 0
 0 750 l 2
 -0 777.599609375 22.400390625 800 50 800 c 0
EndSplineSet
Validated: 5
EndChar

StartChar: K
Encoding: 75 75 10
Width: 800
VWidth: 0
HStem: 0 21G<36.2002 163.8 536.2 663.8> 0 21G<36.2002 163.8 536.2 663.8> 200 200<212.198 487.802> 500 200<212.198 500> 780 20G<36.2002 163.8 536.2 663.8> 780 20G<36.2002 163.8 536.2 663.8>
VStem: 0 200<12.1976 187.802 412.198 487.802 700 787.802> 500 200<12.1976 187.802 700 787.802>
LayerCount: 2
Fore
SplineSet
50 800 m 0xbb
 150 800 l 2
 177.599609375 800 200 777.599609375 200 750 c 0
 200 700 l 1
 500 700 l 1
 500 750 l 2
 500 777.599609375 522.400390625 800 550 800 c 0
 650 800 l 2
 677.599609375 800 700 777.599609375 700 750 c 0
 700 700 l 1
 700 550 l 2
 700 522.400390625 677.599609375 500 650 500 c 0
 250 500 l 2
 222.400390625 500 200 477.599609375 200 450 c 0
 200 422.400390625 222.400390625 400 250 400 c 0
 650 400 l 2
 677.599609375 400 700 377.599609375 700 350 c 0
 700 50 l 2
 700 22.400390625 677.599609375 0 650 0 c 0
 550 0 l 2
 522.400390625 0 500 22.400390625 500 50 c 0
 500 150 l 2
 500 177.599609375 477.599609375 200 450 200 c 0
 250 200 l 2
 222.400390625 200 200 177.599609375 200 150 c 0
 200 50 l 2
 200 22.400390625 177.599609375 0 150 0 c 0
 50 0 l 2
 22.400390625 0 -0 22.400390625 -0 50 c 0
 0 200 l 1
 0 400 l 1
 0 500 l 1
 0 700 l 1
 0 750 l 2
 -0 777.599609375 22.400390625 800 50 800 c 0xbb
EndSplineSet
Validated: 5
EndChar

StartChar: L
Encoding: 76 76 11
Width: 800
VWidth: 0
HStem: 0 200<212.198 687.802> 780 20G<36.2002 163.8> 780 20G<36.2002 163.8>
VStem: 0 200<212.198 787.802>
LayerCount: 2
Fore
SplineSet
50 800 m 0xd0
 150 800 l 2
 177.599609375 800 200 777.599609375 200 750 c 0
 200 250 l 2
 200 222.400390625 222.400390625 200 250 200 c 0
 650 200 l 2
 677.599609375 200 700 177.599609375 700 150 c 0
 700 50 l 2
 700 22.400390625 677.599609375 0 650 0 c 0
 200 0 l 1
 50 0 l 2
 22.400390625 0 -0 22.400390625 -0 50 c 0
 0 200 l 1
 0 750 l 2
 -0 777.599609375 22.400390625 800 50 800 c 0xd0
EndSplineSet
Validated: 5
EndChar

StartChar: M
Encoding: 77 77 12
Width: 800
VWidth: 0
HStem: 0 21G<36.2002 163.8 536.2 663.8> 0 21G<36.2002 163.8 536.2 663.8> 500 200<212.198 487.802> 780 20G<36.2002 163.8 536.2 663.8> 780 20G<36.2002 163.8 536.2 663.8>
VStem: -0 200<12.1976 487.802 712.198 787.802> 500 200<12.1976 487.802 712.198 787.802>
LayerCount: 2
Fore
SplineSet
50 800 m 0xb6
 150 800 l 2
 177.599609375 800 200 777.599609375 200 750 c 0
 200 722.400390625 222.400390625 700 250 700 c 0
 450 700 l 2
 477.599609375 700 500 722.400390625 500 750 c 0
 500 777.599609375 522.400390625 800 550 800 c 0
 650 800 l 2
 677.599609375 800 700 777.599609375 700 750 c 0
 700 50 l 2
 700 22.400390625 677.599609375 0 650 0 c 0
 550 0 l 2
 522.400390625 0 500 22.400390625 500 50 c 0
 500 450 l 2
 500 477.599609375 477.599609375 500 450 500 c 0
 250 500 l 2
 222.400390625 500 200 477.599609375 200 450 c 0
 200 50 l 2
 200 22.400390625 177.599609375 0 150 0 c 0
 50 0 l 2
 22.400390625 0 -0 22.400390625 -0 50 c 0
 0 500 l 1
 0 700 l 1
 0 750 l 2
 -0 777.599609375 22.400390625 800 50 800 c 0xb6
EndSplineSet
Validated: 5
EndChar

StartChar: N
Encoding: 78 78 13
Width: 800
VWidth: 0
HStem: 0 200<412.198 487.802> 780 20G<36.2002 363.8 536.2 663.8> 780 20G<36.2002 363.8 536.2 663.8>
VStem: -0 400<212.198 787.802> 500 200<212.198 787.802>
LayerCount: 2
Fore
SplineSet
50 800 m 0xd8
 200 800 l 1
 350 800 l 2
 377.599609375 800 400 777.599609375 400 750 c 0
 400 250 l 2
 400 222.400390625 422.400390625 200 450 200 c 0
 477.599609375 200 500 222.400390625 500 250 c 0
 500 750 l 2
 500 777.599609375 522.400390625 800 550 800 c 0
 650 800 l 2
 677.599609375 800 700 777.599609375 700 750 c 0
 700 200 l 1
 700 50 l 2
 700 22.400390625 677.599609375 0 650 0 c 0
 250 0 l 2
 222.400390625 0 200 22.400390625 200 50 c 0
 200 22.400390625 177.599609375 0 150 0 c 0
 50 0 l 2
 22.400390625 0 -0 22.400390625 -0 50 c 0
 0 750 l 2
 -0 777.599609375 22.400390625 800 50 800 c 0xd8
EndSplineSet
Validated: 5
EndChar

StartChar: O
Encoding: 79 79 14
Width: 800
VWidth: 0
HStem: 0 200<212.198 487.802> 600 200<212.198 487.802>
VStem: 0 200<212.198 587.802> 500 200<212.198 587.802>
LayerCount: 2
Fore
SplineSet
50 800 m 0
 200 800 l 1
 500 800 l 1
 650 800 l 2
 677.599609375 800 700 777.599609375 700 750 c 0
 700 600 l 1
 700 200 l 1
 700 50 l 2
 700 22.400390625 677.599609375 0 650 0 c 0
 50 0 l 2
 22.400390625 0 -0 22.400390625 -0 50 c 0
 0 200 l 1
 0 600 l 1
 0 750 l 2
 -0 777.599609375 22.400390625 800 50 800 c 0
250 600 m 2
 222.400390625 600 200 577.599609375 200 550 c 0
 200 250 l 2
 200 222.400390625 222.400390625 200 250 200 c 0
 450 200 l 2
 477.599609375 200 500 222.400390625 500 250 c 0
 500 550 l 2
 500 577.599609375 477.599609375 600 450 600 c 0
 250 600 l 2
EndSplineSet
Validated: 5
EndChar

StartChar: P
Encoding: 80 80 15
Width: 800
VWidth: 0
HStem: 0 21G<36.2002 163.8> 0 21G<36.2002 163.8> 200 200<212.198 453.083> 600 200<212.198 453.083>
VStem: 0 200<12.1976 187.802 412.198 587.802> 500 200<445.509 554.491>
LayerCount: 2
Fore
SplineSet
50 800 m 0xbc
 200 800 l 1
 400 800 l 2
 565.599609375 800 700 665.599609375 700 500 c 0
 700 334.400390625 565.599609375 200 400 200 c 2
 250 200 l 2
 222.400390625 200 200 177.599609375 200 150 c 0
 200 50 l 2
 200 22.400390625 177.599609375 0 150 0 c 0
 50 0 l 2
 22.400390625 0 -0 22.400390625 -0 50 c 0
 0 200 l 1
 0 400 l 1
 0 600 l 1
 0 750 l 2
 -0 777.599609375 22.400390625 800 50 800 c 0xbc
250 600 m 2
 222.400390625 600 200 577.599609375 200 550 c 0
 200 450 l 2
 200 422.400390625 222.400390625 400 250 400 c 0
 400 400 l 2
 455.200195312 400 500 444.799804688 500 500 c 0
 500 555.200195312 455.200195312 600 400 600 c 2
 250 600 l 2
EndSplineSet
Validated: 5
EndChar

StartChar: Q
Encoding: 81 81 16
Width: 800
VWidth: 0
HStem: 0 200<212.198 350 600 687.802> 600 200<212.198 387.802>
VStem: 0 200<212.198 587.802> 300 300<212.198 387.802> 400 200<400 587.802>
LayerCount: 2
Fore
SplineSet
50 800 m 0xe8
 200 800 l 1
 550 800 l 2
 577.599609375 800 600 777.599609375 600 750 c 0
 600 200 l 1
 650 200 l 2
 677.599609375 200 700 177.599609375 700 150 c 0
 700 50 l 2
 700 22.400390625 677.599609375 0 650 0 c 0
 200 0 l 1
 50 0 l 2
 22.400390625 0 -0 22.400390625 -0 50 c 0
 0 200 l 1
 0 600 l 1
 0 750 l 2
 -0 777.599609375 22.400390625 800 50 800 c 0xe8
250 600 m 2
 222.400390625 600 200 577.599609375 200 550 c 0
 200 250 l 2
 200 222.400390625 222.400390625 200 250 200 c 0
 300 200 l 1
 350 200 l 2
 322.400390625 200 300 222.400390625 300 250 c 0
 300 350 l 2xf0
 300 377.599609375 322.400390625 400 350 400 c 0
 400 400 l 1
 400 550 l 2
 400 577.599609375 377.599609375 600 350 600 c 0
 250 600 l 2
EndSplineSet
Validated: 5
EndChar

StartChar: R
Encoding: 82 82 17
Width: 800
VWidth: 0
HStem: 0 200<412.198 587.802> 0 100<612.198 687.802> 200 200<212.198 287.802 400 453.083> 600 200<212.198 453.083>
VStem: -0 200<12.1976 187.802 412.198 587.802> 400 300<12.1976 87.8024> 500 200<445.509 554.491>
LayerCount: 2
Fore
SplineSet
50 800 m 0x7c
 200 800 l 1
 400 800 l 2x7c
 565.599609375 800 700 665.599609375 700 500 c 0x7a
 700 334.400390625 565.599609375 200 400 200 c 2x7c
 550 200 l 2x9c
 577.599609375 200 600 177.599609375 600 150 c 0
 600 122.400390625 622.400390625 100 650 100 c 0
 677.599609375 100 700 77.599609375 700 50 c 0
 700 22.400390625 677.599609375 0 650 0 c 0x5c
 450 0 l 2x9c
 422.400390625 0 400 22.400390625 400 50 c 0
 400 77.599609375 377.599609375 100 350 100 c 0
 322.400390625 100 300 122.400390625 300 150 c 0
 300 177.599609375 277.599609375 200 250 200 c 0
 222.400390625 200 200 177.599609375 200 150 c 0
 200 50 l 2
 200 22.400390625 177.599609375 0 150 0 c 0
 50 0 l 2
 22.400390625 0 -0 22.400390625 -0 50 c 0
 0 750 l 2
 -0 777.599609375 22.400390625 800 50 800 c 0x7c
250 600 m 2
 222.400390625 600 200 577.599609375 200 550 c 0
 200 450 l 2
 200 422.400390625 222.400390625 400 250 400 c 0
 400 400 l 2x3c
 455.200195312 400 500 444.799804688 500 500 c 0x3a
 500 555.200195312 455.200195312 600 400 600 c 0
 250 600 l 2
EndSplineSet
Validated: 5
EndChar

StartChar: S
Encoding: 83 83 18
Width: 800
VWidth: 0
HStem: 0 200<12.1976 487.802> 300 200<212.198 487.802> 600 200<212.198 687.802>
VStem: 0 200<512.071 587.929> 500 200<212.071 287.929>
CounterMasks: 1 e0
LayerCount: 2
Fore
SplineSet
250 800 m 2
 650 800 l 2
 677.599609375 800 700 777.599609375 700 750 c 0
 700 650 l 2
 700 622.400390625 677.599609375 600 650 600 c 0
 250 600 l 2
 222.400390625 600 200 577.599609375 200 550 c 0
 200 522.400390625 222.400390625 500 250 500 c 2
 450 500 l 2
 588 500 700 388 700 250 c 0
 700 112 588 0 450 0 c 2
 50 0 l 2
 22.400390625 0 -0 22.400390625 -0 50 c 0
 0 150 l 2
 -0 177.599609375 22.400390625 200 50 200 c 0
 450 200 l 2
 477.599609375 200 500 222.400390625 500 250 c 0
 500 277.599609375 477.599609375 300 450 300 c 2
 250 300 l 2
 112 300 0 412 0 550 c 0
 0 688 112 800 250 800 c 2
EndSplineSet
Validated: 5
EndChar

StartChar: T
Encoding: 84 84 19
Width: 800
VWidth: 0
HStem: 0 21G<236.2 463.8> 0 21G<236.2 463.8> 600 200<12.1976 187.802 512.198 687.802>
VStem: 200 300<12.1976 587.802>
LayerCount: 2
Fore
SplineSet
50 800 m 0xb0
 650 800 l 2
 677.599609375 800 700 777.599609375 700 750 c 0
 700 650 l 2
 700 622.400390625 677.599609375 600 650 600 c 0
 550 600 l 2
 522.400390625 600 500 577.599609375 500 550 c 0
 500 50 l 2
 500 22.400390625 477.599609375 0 450 0 c 0
 250 0 l 2
 222.400390625 0 200 22.400390625 200 50 c 0
 200 550 l 2
 200 577.599609375 177.599609375 600 150 600 c 0
 50 600 l 2
 22.400390625 600 -0 622.400390625 -0 650 c 0
 0 750 l 2
 -0 777.599609375 22.400390625 800 50 800 c 0xb0
EndSplineSet
Validated: 5
EndChar

StartChar: U
Encoding: 85 85 20
Width: 800
VWidth: 0
HStem: 0 200<212.198 487.802> 780 20G<36.2002 163.8 536.2 663.8> 780 20G<36.2002 163.8 536.2 663.8>
VStem: 0 200<212.198 787.802> 500 200<212.198 787.802>
LayerCount: 2
Fore
SplineSet
50 800 m 0xd8
 150 800 l 2
 177.599609375 800 200 777.599609375 200 750 c 0
 200 250 l 2
 200 222.400390625 222.400390625 200 250 200 c 0
 450 200 l 2
 477.599609375 200 500 222.400390625 500 250 c 0
 500 750 l 2
 500 777.599609375 522.400390625 800 550 800 c 0
 650 800 l 2
 677.599609375 800 700 777.599609375 700 750 c 0
 700 200 l 1
 700 50 l 2
 700 22.400390625 677.599609375 0 650 0 c 0
 200 0 l 1
 50 0 l 2
 22.400390625 0 -0 22.400390625 -0 50 c 0
 0 200 l 1
 0 750 l 2
 -0 777.599609375 22.400390625 800 50 800 c 0xd8
EndSplineSet
Validated: 5
EndChar

StartChar: V
Encoding: 86 86 21
Width: 800
VWidth: 0
HStem: 0 200<312.198 387.802> 780 20G<36.2002 163.8 536.2 663.8> 780 20G<36.2002 163.8 536.2 663.8>
VStem: -0 200<312.198 787.802> 500 200<312.198 787.802>
LayerCount: 2
Fore
SplineSet
50 800 m 0xd8
 150 800 l 2
 177.599609375 800 200 777.599609375 200 750 c 0
 200 350 l 2
 200 322.400390625 222.400390625 300 250 300 c 0
 277.599609375 300 300 277.599609375 300 250 c 0
 300 222.400390625 322.400390625 200 350 200 c 0
 377.599609375 200 400 222.400390625 400 250 c 0
 400 277.599609375 422.400390625 300 450 300 c 0
 477.599609375 300 500 322.400390625 500 350 c 0
 500 750 l 2
 500 777.599609375 522.400390625 800 550 800 c 0
 650 800 l 2
 677.599609375 800 700 777.599609375 700 750 c 0
 700 150 l 2
 700 122.400390625 677.599609375 100 650 100 c 0
 550 100 l 2
 522.400390625 100 500 77.599609375 500 50 c 0
 500 22.400390625 477.599609375 0 450 0 c 0
 250 0 l 2
 222.400390625 0 200 22.400390625 200 50 c 0
 200 77.599609375 177.599609375 100 150 100 c 0
 50 100 l 2
 22.400390625 100 -0 122.400390625 -0 150 c 0
 0 750 l 2
 -0 777.599609375 22.400390625 800 50 800 c 0xd8
EndSplineSet
Validated: 5
EndChar

StartChar: v
Encoding: 118 118 22
Width: 800
VWidth: 0
HStem: 0 200<312.198 387.802> 780 20G<36.2002 163.8 536.2 663.8> 780 20G<36.2002 163.8 536.2 663.8>
VStem: -0 200<312.198 787.802> 500 200<312.198 787.802>
LayerCount: 2
Fore
SplineSet
50 800 m 0xd8
 150 800 l 2
 177.599609375 800 200 777.599609375 200 750 c 0
 200 350 l 2
 200 322.400390625 222.400390625 300 250 300 c 0
 277.599609375 300 300 277.599609375 300 250 c 0
 300 222.400390625 322.400390625 200 350 200 c 0
 377.599609375 200 400 222.400390625 400 250 c 0
 400 277.599609375 422.400390625 300 450 300 c 0
 477.599609375 300 500 322.400390625 500 350 c 0
 500 750 l 2
 500 777.599609375 522.400390625 800 550 800 c 0
 650 800 l 2
 677.599609375 800 700 777.599609375 700 750 c 0
 700 150 l 2
 700 122.400390625 677.599609375 100 650 100 c 0
 550 100 l 2
 522.400390625 100 500 77.599609375 500 50 c 0
 500 22.400390625 477.599609375 0 450 0 c 0
 250 0 l 2
 222.400390625 0 200 22.400390625 200 50 c 0
 200 77.599609375 177.599609375 100 150 100 c 0
 50 100 l 2
 22.400390625 100 -0 122.400390625 -0 150 c 0
 0 750 l 2
 -0 777.599609375 22.400390625 800 50 800 c 0xd8
EndSplineSet
Validated: 5
EndChar

StartChar: a
Encoding: 97 97 23
Width: 800
VWidth: 0
HStem: 0 21G<36.2002 163.8 536.2 663.8> 0 21G<36.2002 163.8 536.2 663.8> 200 200<212.198 487.802> 600 200<212.198 487.802>
VStem: -0 200<12.1976 187.802 412.198 587.802> 500 200<12.1976 187.802 412.198 587.802>
LayerCount: 2
Fore
SplineSet
50 800 m 0xbc
 200 800 l 1
 650 800 l 2
 677.599609375 800 700 777.599609375 700 750 c 0
 700 50 l 2
 700 22.400390625 677.599609375 0 650 0 c 0
 550 0 l 2
 522.400390625 0 500 22.400390625 500 50 c 0
 500 150 l 2
 500 177.599609375 477.599609375 200 450 200 c 0
 250 200 l 2
 222.400390625 200 200 177.599609375 200 150 c 0
 200 50 l 2
 200 22.400390625 177.599609375 0 150 0 c 0
 50 0 l 2
 22.400390625 0 -0 22.400390625 -0 50 c 0
 0 300 l 1
 0 400 l 1
 0 600 l 1
 0 750 l 2
 -0 777.599609375 22.400390625 800 50 800 c 0xbc
250 600 m 2
 222.400390625 600 200 577.599609375 200 550 c 0
 200 450 l 2
 200 422.400390625 222.400390625 400 250 400 c 0
 450 400 l 2
 477.599609375 400 500 422.400390625 500 450 c 0
 500 550 l 2
 500 577.599609375 477.599609375 600 450 600 c 0
 250 600 l 2
EndSplineSet
Validated: 5
EndChar

StartChar: W
Encoding: 87 87 24
Width: 800
VWidth: 0
HStem: 0 21G<36.2002 663.8> 0 21G<36.2002 663.8> 780 20G<36.2002 163.8 286.2 413.8 536.2 663.8> 780 20G<36.2002 163.8 286.2 413.8 536.2 663.8>
VStem: 0 200<176.125 787.802> 250 200<176.125 787.802> 500 200<176.125 787.802>
CounterMasks: 1 0e
LayerCount: 2
Fore
SplineSet
50 800 m 0xae
 150 800 l 2
 177.599609375 800 200 777.599609375 200 750 c 0
 200 200 l 2
 200 186.200195312 211.200195312 175 225 175 c 0
 238.799804688 175 250 186.200195312 250 200 c 2
 250 750 l 2
 250 777.599609375 272.400390625 800 300 800 c 0
 400 800 l 2
 427.599609375 800 450 777.599609375 450 750 c 0
 450 200 l 2
 450 186.200195312 461.200195312 175 475 175 c 0
 488.799804688 175 500 186.200195312 500 200 c 2
 500 750 l 2
 500 777.599609375 522.400390625 800 550 800 c 0
 650 800 l 2
 677.599609375 800 700 777.599609375 700 750 c 0
 700 200 l 1
 700 50 l 2
 700 22.400390625 677.599609375 0 650 0 c 0
 50 0 l 2
 22.400390625 0 -0 22.400390625 -0 50 c 0
 0 200 l 1
 0 750 l 2
 -0 777.599609375 22.400390625 800 50 800 c 0xae
EndSplineSet
Validated: 5
EndChar

StartChar: X
Encoding: 88 88 25
Width: 800
VWidth: 0
HStem: 0 200<12.1976 187.802 512.198 687.802> 600 200<12.1976 187.802 512.198 687.802>
VStem: -0 300<12.1976 187.802 612.198 787.802> 200 300<212.198 587.802> 400 300<12.1976 187.802 612.198 787.802>
LayerCount: 2
Fore
SplineSet
50 800 m 0xe0
 250 800 l 2
 277.599609375 800 300 777.599609375 300 750 c 0
 300 650 l 2
 300 622.400390625 322.400390625 600 350 600 c 0
 377.599609375 600 400 622.400390625 400 650 c 0
 400 750 l 2
 400 777.599609375 422.400390625 800 450 800 c 0
 650 800 l 2
 677.599609375 800 700 777.599609375 700 750 c 0
 700 650 l 2xe8
 700 622.400390625 677.599609375 600 650 600 c 0
 550 600 l 2
 522.400390625 600 500 577.599609375 500 550 c 0
 500 250 l 2xd0
 500 222.400390625 522.400390625 200 550 200 c 0
 650 200 l 2
 677.599609375 200 700 177.599609375 700 150 c 0
 700 50 l 2
 700 22.400390625 677.599609375 0 650 0 c 0
 450 0 l 2
 422.400390625 0 400 22.400390625 400 50 c 0
 400 150 l 2
 400 177.599609375 377.599609375 200 350 200 c 0
 322.400390625 200 300 177.599609375 300 150 c 0
 300 50 l 2
 300 22.400390625 277.599609375 0 250 0 c 0
 50 0 l 2
 22.400390625 0 -0 22.400390625 -0 50 c 0
 0 150 l 2xe8
 -0 177.599609375 22.400390625 200 50 200 c 0
 150 200 l 2
 177.599609375 200 200 222.400390625 200 250 c 0
 200 550 l 2xd0
 200 577.599609375 177.599609375 600 150 600 c 0
 50 600 l 2
 22.400390625 600 -0 622.400390625 -0 650 c 0
 0 750 l 2
 -0 777.599609375 22.400390625 800 50 800 c 0xe0
EndSplineSet
Validated: 5
EndChar

StartChar: Y
Encoding: 89 89 26
Width: 800
VWidth: 0
HStem: 0 200<12.1976 487.802> 400 200<212.198 487.802> 780 20G<36.2002 163.8 536.2 663.8> 780 20G<36.2002 163.8 536.2 663.8>
VStem: 0 200<612.198 787.802> 500 200<212.198 387.802 612.198 787.802>
LayerCount: 2
Fore
SplineSet
50 800 m 0xec
 150 800 l 2
 177.599609375 800 200 777.599609375 200 750 c 0
 200 650 l 2
 200 622.400390625 222.400390625 600 250 600 c 0
 450 600 l 2
 477.599609375 600 500 622.400390625 500 650 c 0
 500 750 l 2
 500 777.599609375 522.400390625 800 550 800 c 0
 650 800 l 2
 677.599609375 800 700 777.599609375 700 750 c 0
 700 200 l 1
 700 50 l 2
 700 22.400390625 677.599609375 0 650 0 c 0
 50 0 l 2
 22.400390625 0 -0 22.400390625 -0 50 c 0
 0 150 l 2
 -0 177.599609375 22.400390625 200 50 200 c 0
 450 200 l 2
 477.599609375 200 500 222.400390625 500 250 c 0
 500 350 l 2
 500 377.599609375 477.599609375 400 450 400 c 0
 200 400 l 1
 50 400 l 2
 22.400390625 400 -0 422.400390625 -0 450 c 0
 0 750 l 2
 -0 777.599609375 22.400390625 800 50 800 c 0xec
EndSplineSet
Validated: 5
EndChar

StartChar: s
Encoding: 115 115 27
Width: 800
VWidth: 0
HStem: 0 200<12.1976 487.802> 300 200<212.198 487.802> 600 200<212.198 687.802>
VStem: 0 200<512.071 587.929> 500 200<212.071 287.929>
CounterMasks: 1 e0
LayerCount: 2
Fore
SplineSet
250 800 m 2
 650 800 l 2
 677.599609375 800 700 777.599609375 700 750 c 0
 700 650 l 2
 700 622.400390625 677.599609375 600 650 600 c 0
 250 600 l 2
 222.400390625 600 200 577.599609375 200 550 c 0
 200 522.400390625 222.400390625 500 250 500 c 2
 450 500 l 2
 588 500 700 388 700 250 c 0
 700 112 588 0 450 0 c 2
 50 0 l 2
 22.400390625 0 -0 22.400390625 -0 50 c 0
 0 150 l 2
 -0 177.599609375 22.400390625 200 50 200 c 0
 450 200 l 2
 477.599609375 200 500 222.400390625 500 250 c 0
 500 277.599609375 477.599609375 300 450 300 c 2
 250 300 l 2
 112 300 0 412 0 550 c 0
 0 688 112 800 250 800 c 2
EndSplineSet
Validated: 5
EndChar

StartChar: Z
Encoding: 90 90 28
Width: 800
VWidth: 0
HStem: 0 200<212.198 687.802> 300 200<212.198 300 400 487.802> 600 200<12.1976 487.802>
VStem: 0 200<212.198 287.802> 300 100<212.198 300 500 587.802> 500 200<512.198 587.802>
CounterMasks: 1 fc
LayerCount: 2
Fore
SplineSet
50 800 m 0
 650 800 l 2
 677.599609375 800 700 777.599609375 700 750 c 0
 700 600 l 1
 700 500 l 1
 700 350 l 2
 700 322.400390625 677.599609375 300 650 300 c 0
 400 300 l 1
 400 250 l 2
 400 222.400390625 377.599609375 200 350 200 c 0
 322.400390625 200 300 222.400390625 300 250 c 0
 300 300 l 1
 250 300 l 2
 222.400390625 300 200 277.599609375 200 250 c 0
 200 222.400390625 222.400390625 200 250 200 c 0
 300 200 l 1
 350 200 l 1
 400 200 l 1
 650 200 l 2
 677.599609375 200 700 177.599609375 700 150 c 0
 700 50 l 2
 700 22.400390625 677.599609375 0 650 0 c 0
 50 0 l 2
 22.400390625 0 -0 22.400390625 -0 50 c 0
 0 200 l 1
 0 300 l 1
 0 450 l 2
 -0 477.599609375 22.400390625 500 50 500 c 0
 300 500 l 1
 300 550 l 2
 300 577.599609375 322.400390625 600 350 600 c 0
 377.599609375 600 400 577.599609375 400 550 c 0
 400 500 l 1
 450 500 l 2
 477.599609375 500 500 522.400390625 500 550 c 0
 500 577.599609375 477.599609375 600 450 600 c 0
 400 600 l 1
 350 600 l 1
 300 600 l 1
 50 600 l 2
 22.400390625 600 -0 622.400390625 -0 650 c 0
 0 750 l 2
 -0 777.599609375 22.400390625 800 50 800 c 0
EndSplineSet
Validated: 5
EndChar

StartChar: zero
Encoding: 48 48 29
Width: 800
VWidth: 0
HStem: 0 150<162.198 287.802 412.198 537.802> 350 100<162.198 287.802 412.198 537.802> 650 150<162.198 287.802 412.198 537.802>
VStem: -0 150<162.198 337.802 462.198 637.802> 300 100<162.198 337.802 462.198 637.802> 550 150<162.198 337.802 462.198 637.802>
CounterMasks: 1 fc
LayerCount: 2
Fore
SplineSet
50 800 m 0
 100 800 l 1
 150 800 l 1
 550 800 l 1
 600 800 l 1
 650 800 l 2
 677.599609375 800 700 777.599609375 700 750 c 0
 700 50 l 2
 700 22.400390625 677.599609375 0 650 0 c 0
 600 0 l 1
 150 0 l 1
 50 0 l 2
 22.400390625 0 -0 22.400390625 -0 50 c 0
 0 750 l 2
 -0 777.599609375 22.400390625 800 50 800 c 0
200 650 m 2
 172.400390625 650 150 627.599609375 150 600 c 0
 150 500 l 2
 150 472.400390625 172.400390625 450 200 450 c 0
 250 450 l 2
 277.599609375 450 300 472.400390625 300 500 c 0
 300 600 l 2
 300 627.599609375 277.599609375 650 250 650 c 0
 200 650 l 2
450 650 m 2
 422.400390625 650 400 627.599609375 400 600 c 0
 400 500 l 2
 400 472.400390625 422.400390625 450 450 450 c 0
 500 450 l 2
 527.599609375 450 550 472.400390625 550 500 c 0
 550 600 l 2
 550 627.599609375 527.599609375 650 500 650 c 0
 450 650 l 2
200 350 m 2
 172.400390625 350 150 327.599609375 150 300 c 0
 150 200 l 2
 150 172.400390625 172.400390625 150 200 150 c 0
 250 150 l 2
 277.599609375 150 300 172.400390625 300 200 c 0
 300 300 l 2
 300 327.599609375 277.599609375 350 250 350 c 0
 200 350 l 2
450 350 m 2
 422.400390625 350 400 327.599609375 400 300 c 0
 400 200 l 2
 400 172.400390625 422.400390625 150 450 150 c 0
 500 150 l 2
 527.599609375 150 550 172.400390625 550 200 c 0
 550 300 l 2
 550 327.599609375 527.599609375 350 500 350 c 0
 450 350 l 2
EndSplineSet
Validated: 5
EndChar

StartChar: one
Encoding: 49 49 30
Width: 800
VWidth: 0
HStem: 0 200<12.1976 287.802 512.198 687.802> 600 200<12.1976 300>
VStem: 300 200<212.198 600>
LayerCount: 2
Fore
SplineSet
50 800 m 0
 300 800 l 1
 450 800 l 2
 477.599609375 800 500 777.599609375 500 750 c 0
 500 250 l 2
 500 222.400390625 522.400390625 200 550 200 c 0
 650 200 l 2
 677.599609375 200 700 177.599609375 700 150 c 0
 700 50 l 2
 700 22.400390625 677.599609375 0 650 0 c 0
 50 0 l 2
 22.400390625 0 -0 22.400390625 -0 50 c 0
 0 150 l 2
 -0 177.599609375 22.400390625 200 50 200 c 0
 250 200 l 2
 277.599609375 200 300 222.400390625 300 250 c 0
 300 550 l 1
 300 600 l 1
 250 600 l 1
 50 600 l 2
 22.400390625 600 -0 622.400390625 -0 650 c 0
 0 750 l 2
 -0 777.599609375 22.400390625 800 50 800 c 0
EndSplineSet
Validated: 5
EndChar

StartChar: two
Encoding: 50 50 31
Width: 800
VWidth: 0
HStem: 0 200<212.198 687.802> 300 200<212.198 487.802> 600 200<12.1976 487.802>
VStem: 0 200<212.198 287.802> 500 200<512.198 587.802>
CounterMasks: 1 e0
LayerCount: 2
Fore
SplineSet
50 800 m 0
 650 800 l 2
 677.599609375 800 700 777.599609375 700 750 c 0
 700 600 l 1
 700 500 l 1
 700 350 l 2
 700 322.400390625 677.599609375 300 650 300 c 0
 250 300 l 2
 222.400390625 300 200 277.599609375 200 250 c 0
 200 222.400390625 222.400390625 200 250 200 c 0
 650 200 l 2
 677.599609375 200 700 177.599609375 700 150 c 0
 700 50 l 2
 700 22.400390625 677.599609375 0 650 0 c 0
 50 0 l 2
 22.400390625 0 -0 22.400390625 -0 50 c 0
 0 200 l 1
 0 300 l 1
 0 450 l 2
 -0 477.599609375 22.400390625 500 50 500 c 0
 450 500 l 2
 477.599609375 500 500 522.400390625 500 550 c 0
 500 577.599609375 477.599609375 600 450 600 c 0
 50 600 l 2
 22.400390625 600 -0 622.400390625 -0 650 c 0
 0 750 l 2
 -0 777.599609375 22.400390625 800 50 800 c 0
EndSplineSet
Validated: 5
EndChar

StartChar: three
Encoding: 51 51 32
Width: 800
VWidth: 0
HStem: 0 200<12.1976 487.802> 300 200<12.1976 487.802> 600 200<12.1976 487.802>
VStem: 500 200<212.198 287.802 512.198 587.802>
CounterMasks: 1 e0
LayerCount: 2
Fore
SplineSet
50 800 m 0
 500 800 l 1
 650 800 l 2
 677.599609375 800 700 777.599609375 700 750 c 0
 700 50 l 2
 700 22.400390625 677.599609375 0 650 0 c 0
 500 0 l 1
 50 0 l 2
 22.400390625 0 -0 22.400390625 -0 50 c 0
 0 150 l 2
 -0 177.599609375 22.400390625 200 50 200 c 0
 450 200 l 2
 477.599609375 200 500 222.400390625 500 250 c 0
 500 277.599609375 477.599609375 300 450 300 c 0
 50 300 l 2
 22.400390625 300 -0 322.400390625 -0 350 c 0
 0 450 l 2
 -0 477.599609375 22.400390625 500 50 500 c 0
 450 500 l 2
 477.599609375 500 500 522.400390625 500 550 c 0
 500 577.599609375 477.599609375 600 450 600 c 0
 50 600 l 2
 22.400390625 600 -0 622.400390625 -0 650 c 0
 0 750 l 2
 -0 777.599609375 22.400390625 800 50 800 c 0
EndSplineSet
Validated: 5
EndChar

StartChar: four
Encoding: 52 52 33
Width: 800
VWidth: 0
HStem: 0 21G<536.2 663.8> 0 21G<536.2 663.8> 400 200<212.198 487.802> 780 20G<36.2002 163.8 536.2 663.8> 780 20G<36.2002 163.8 536.2 663.8>
VStem: 0 200<612.198 787.802> 500 200<12.1976 387.802 612.198 787.802>
LayerCount: 2
Fore
SplineSet
50 800 m 0xb6
 150 800 l 2
 177.599609375 800 200 777.599609375 200 750 c 0
 200 650 l 2
 200 622.400390625 222.400390625 600 250 600 c 0
 450 600 l 2
 477.599609375 600 500 622.400390625 500 650 c 0
 500 750 l 2
 500 777.599609375 522.400390625 800 550 800 c 0
 650 800 l 2
 677.599609375 800 700 777.599609375 700 750 c 0
 700 50 l 2
 700 22.400390625 677.599609375 0 650 0 c 0
 550 0 l 2
 522.400390625 0 500 22.400390625 500 50 c 0
 500 350 l 2
 500 377.599609375 477.599609375 400 450 400 c 0
 200 400 l 1
 50 400 l 2
 22.400390625 400 -0 422.400390625 -0 450 c 0
 0 750 l 2
 -0 777.599609375 22.400390625 800 50 800 c 0xb6
EndSplineSet
Validated: 5
EndChar

StartChar: o
Encoding: 111 111 34
Width: 800
VWidth: 0
HStem: 0 200<212.198 487.802> 600 200<212.198 487.802>
VStem: 0 200<212.198 587.802> 500 200<212.198 587.802>
LayerCount: 2
Fore
SplineSet
50 800 m 0
 200 800 l 1
 500 800 l 1
 650 800 l 2
 677.599609375 800 700 777.599609375 700 750 c 0
 700 600 l 1
 700 200 l 1
 700 50 l 2
 700 22.400390625 677.599609375 0 650 0 c 0
 50 0 l 2
 22.400390625 0 -0 22.400390625 -0 50 c 0
 0 200 l 1
 0 600 l 1
 0 750 l 2
 -0 777.599609375 22.400390625 800 50 800 c 0
250 600 m 2
 222.400390625 600 200 577.599609375 200 550 c 0
 200 250 l 2
 200 222.400390625 222.400390625 200 250 200 c 0
 450 200 l 2
 477.599609375 200 500 222.400390625 500 250 c 0
 500 550 l 2
 500 577.599609375 477.599609375 600 450 600 c 0
 250 600 l 2
EndSplineSet
Validated: 5
EndChar

StartChar: p
Encoding: 112 112 35
Width: 800
VWidth: 0
HStem: 0 21G<36.2002 163.8> 0 21G<36.2002 163.8> 200 200<212.198 453.083> 600 200<212.198 453.083>
VStem: 0 200<12.1976 187.802 412.198 587.802> 500 200<445.509 554.491>
LayerCount: 2
Fore
SplineSet
50 800 m 0xbc
 200 800 l 1
 400 800 l 2
 565.599609375 800 700 665.599609375 700 500 c 0
 700 334.400390625 565.599609375 200 400 200 c 2
 250 200 l 2
 222.400390625 200 200 177.599609375 200 150 c 0
 200 50 l 2
 200 22.400390625 177.599609375 0 150 0 c 0
 50 0 l 2
 22.400390625 0 -0 22.400390625 -0 50 c 0
 0 200 l 1
 0 400 l 1
 0 600 l 1
 0 750 l 2
 -0 777.599609375 22.400390625 800 50 800 c 0xbc
250 600 m 2
 222.400390625 600 200 577.599609375 200 550 c 0
 200 450 l 2
 200 422.400390625 222.400390625 400 250 400 c 0
 400 400 l 2
 455.200195312 400 500 444.799804688 500 500 c 0
 500 555.200195312 455.200195312 600 400 600 c 2
 250 600 l 2
EndSplineSet
Validated: 5
EndChar

StartChar: five
Encoding: 53 53 36
Width: 800
VWidth: 0
HStem: 0 200<12.1976 487.802> 300 200<212.198 487.802> 600 200<212.198 687.802>
VStem: -0 200<512.198 587.802> 500 200<212.198 287.802>
CounterMasks: 1 e0
LayerCount: 2
Fore
SplineSet
50 800 m 0
 200 800 l 1
 650 800 l 2
 677.599609375 800 700 777.599609375 700 750 c 0
 700 650 l 2
 700 622.400390625 677.599609375 600 650 600 c 0
 250 600 l 2
 222.400390625 600 200 577.599609375 200 550 c 0
 200 522.400390625 222.400390625 500 250 500 c 0
 500 500 l 1
 650 500 l 2
 677.599609375 500 700 477.599609375 700 450 c 0
 700 50 l 2
 700 22.400390625 677.599609375 0 650 0 c 0
 500 0 l 1
 50 0 l 2
 22.400390625 0 -0 22.400390625 -0 50 c 0
 0 150 l 2
 -0 177.599609375 22.400390625 200 50 200 c 0
 450 200 l 2
 477.599609375 200 500 222.400390625 500 250 c 0
 500 277.599609375 477.599609375 300 450 300 c 0
 200 300 l 1
 50 300 l 2
 22.400390625 300 -0 322.400390625 -0 350 c 0
 0 750 l 2
 -0 777.599609375 22.400390625 800 50 800 c 0
EndSplineSet
Validated: 5
EndChar

StartChar: six
Encoding: 54 54 37
Width: 800
VWidth: 0
HStem: 0 200<212.198 487.802> 300 200<212.198 487.802> 600 200<212.198 687.802>
VStem: -0 200<212.198 287.802 512.198 587.802> 500 200<212.198 287.802>
CounterMasks: 1 e0
LayerCount: 2
Fore
SplineSet
50 800 m 0
 200 800 l 1
 650 800 l 2
 677.599609375 800 700 777.599609375 700 750 c 0
 700 650 l 2
 700 622.400390625 677.599609375 600 650 600 c 0
 250 600 l 2
 222.400390625 600 200 577.599609375 200 550 c 0
 200 522.400390625 222.400390625 500 250 500 c 0
 650 500 l 2
 677.599609375 500 700 477.599609375 700 450 c 0
 700 300 l 1
 700 200 l 1
 700 50 l 2
 700 22.400390625 677.599609375 0 650 0 c 0
 200 0 l 1
 50 0 l 2
 22.400390625 0 -0 22.400390625 -0 50 c 0
 0 750 l 2
 -0 777.599609375 22.400390625 800 50 800 c 0
250 300 m 2
 222.400390625 300 200 277.599609375 200 250 c 0
 200 222.400390625 222.400390625 200 250 200 c 0
 450 200 l 2
 477.599609375 200 500 222.400390625 500 250 c 0
 500 277.599609375 477.599609375 300 450 300 c 0
 250 300 l 2
EndSplineSet
Validated: 5
EndChar

StartChar: seven
Encoding: 55 55 38
Width: 800
VWidth: 0
HStem: 0 21G<536.2 663.8> 0 21G<536.2 663.8> 600 200<12.1976 487.802>
VStem: 500 200<12.1976 587.802>
LayerCount: 2
Fore
SplineSet
50 800 m 0xb0
 650 800 l 2
 677.599609375 800 700 777.599609375 700 750 c 0
 700 600 l 1
 700 50 l 2
 700 22.400390625 677.599609375 0 650 0 c 0
 550 0 l 2
 522.400390625 0 500 22.400390625 500 50 c 0
 500 550 l 2
 500 577.599609375 477.599609375 600 450 600 c 0
 50 600 l 2
 22.400390625 600 -0 622.400390625 -0 650 c 0
 0 750 l 2
 -0 777.599609375 22.400390625 800 50 800 c 0xb0
EndSplineSet
Validated: 5
EndChar

StartChar: eight
Encoding: 56 56 39
Width: 800
VWidth: 0
HStem: 0 200<212.198 487.802> 300 200<212.198 487.802> 600 200<212.198 487.802>
VStem: -0 200<212.198 287.802 512.198 587.802> 500 200<212.198 287.802 512.198 587.802>
CounterMasks: 1 e0
LayerCount: 2
Fore
SplineSet
50 800 m 0
 200 800 l 1
 500 800 l 1
 650 800 l 2
 677.599609375 800 700 777.599609375 700 750 c 0
 700 50 l 2
 700 22.400390625 677.599609375 0 650 0 c 0
 500 0 l 1
 200 0 l 1
 50 0 l 2
 22.400390625 0 -0 22.400390625 -0 50 c 0
 0 750 l 2
 -0 777.599609375 22.400390625 800 50 800 c 0
250 600 m 2
 222.400390625 600 200 577.599609375 200 550 c 0
 200 522.400390625 222.400390625 500 250 500 c 0
 450 500 l 2
 477.599609375 500 500 522.400390625 500 550 c 0
 500 577.599609375 477.599609375 600 450 600 c 0
 250 600 l 2
250 300 m 2
 222.400390625 300 200 277.599609375 200 250 c 0
 200 222.400390625 222.400390625 200 250 200 c 0
 450 200 l 2
 477.599609375 200 500 222.400390625 500 250 c 0
 500 277.599609375 477.599609375 300 450 300 c 0
 250 300 l 2
EndSplineSet
Validated: 5
EndChar

StartChar: nine
Encoding: 57 57 40
Width: 800
VWidth: 0
HStem: 0 200<12.1976 487.802> 300 200<212.198 487.802> 600 200<212.198 487.802>
VStem: 0 200<512.198 587.802> 500 200<212.198 287.802 512.198 587.802>
CounterMasks: 1 e0
LayerCount: 2
Fore
SplineSet
50 800 m 0
 650 800 l 2
 677.599609375 800 700 777.599609375 700 750 c 0
 700 600 l 1
 700 50 l 2
 700 22.400390625 677.599609375 0 650 0 c 0
 500 0 l 1
 50 0 l 2
 22.400390625 0 -0 22.400390625 -0 50 c 0
 0 150 l 2
 -0 177.599609375 22.400390625 200 50 200 c 0
 450 200 l 2
 477.599609375 200 500 222.400390625 500 250 c 0
 500 277.599609375 477.599609375 300 450 300 c 0
 50 300 l 2
 22.400390625 300 -0 322.400390625 -0 350 c 0
 0 500 l 1
 0 600 l 1
 0 750 l 2
 -0 777.599609375 22.400390625 800 50 800 c 0
250 600 m 2
 222.400390625 600 200 577.599609375 200 550 c 0
 200 522.400390625 222.400390625 500 250 500 c 0
 450 500 l 2
 477.599609375 500 500 522.400390625 500 550 c 0
 500 577.599609375 477.599609375 600 450 600 c 0
 250 600 l 2
EndSplineSet
Validated: 5
EndChar

StartChar: b
Encoding: 98 98 41
Width: 800
VWidth: 0
HStem: 0 100<212.198 554.732> 300 100<400 554.732> 400 100<400 454.732> 700 100<212.198 454.732>
VStem: -0 200<112.198 287.802 512.198 687.802> 500 100<544.685 655.315> 600 100<144.685 255.315>
LayerCount: 2
Fore
SplineSet
50 800 m 0xdc
 100 800 l 1
 400 800 l 2
 510.400390625 800 600 710.400390625 600 600 c 0
 600 489.599609375 510.400390625 400 400 400 c 0
 500 400 l 2xdc
 610.400390625 400 700 310.400390625 700 200 c 0xda
 700 89.599609375 610.400390625 0 500 0 c 0
 100 0 l 1
 50 0 l 2
 22.400390625 0 -0 22.400390625 -0 50 c 0
 0 750 l 2
 -0 777.599609375 22.400390625 800 50 800 c 0xdc
250 700 m 2
 222.400390625 700 200 677.599609375 200 650 c 0
 200 550 l 2
 200 522.400390625 222.400390625 500 250 500 c 0
 400 500 l 2xbc
 455.200195312 500 500 544.799804688 500 600 c 0
 500 655.200195312 455.200195312 700 400 700 c 2
 250 700 l 2
250 300 m 2xdc
 222.400390625 300 200 277.599609375 200 250 c 0
 200 150 l 2
 200 122.400390625 222.400390625 100 250 100 c 0
 500 100 l 2xdc
 555.200195312 100 600 144.799804688 600 200 c 0xda
 600 255.200195312 555.200195312 300 500 300 c 0
 250 300 l 2xdc
EndSplineSet
Validated: 5
EndChar

StartChar: c
Encoding: 99 99 42
Width: 800
VWidth: 0
HStem: 0 200<212.198 687.802> 600 200<212.198 687.802>
VStem: 0 200<212.198 587.802>
LayerCount: 2
Fore
SplineSet
50 800 m 0
 200 800 l 1
 650 800 l 2
 677.599609375 800 700 777.599609375 700 750 c 0
 700 650 l 2
 700 622.400390625 677.599609375 600 650 600 c 0
 250 600 l 2
 222.400390625 600 200 577.599609375 200 550 c 0
 200 250 l 2
 200 222.400390625 222.400390625 200 250 200 c 0
 650 200 l 2
 677.599609375 200 700 177.599609375 700 150 c 0
 700 50 l 2
 700 22.400390625 677.599609375 0 650 0 c 0
 50 0 l 2
 22.400390625 0 -0 22.400390625 -0 50 c 0
 0 200 l 1
 0 600 l 1
 0 750 l 2
 -0 777.599609375 22.400390625 800 50 800 c 0
EndSplineSet
Validated: 5
EndChar

StartChar: d
Encoding: 100 100 43
Width: 800
VWidth: 0
HStem: 0 200<212.198 377.825> 600 200<212.198 377.825>
VStem: -0 200<212.198 587.802> 500 200<320.797 479.203>
LayerCount: 2
Fore
SplineSet
50 800 m 0
 200 800 l 1
 300 800 l 2
 520.799804688 800 700 620.799804688 700 400 c 0
 700 179.200195312 520.799804688 0 300 0 c 0
 200 0 l 1
 50 0 l 2
 22.400390625 0 -0 22.400390625 -0 50 c 0
 0 750 l 2
 -0 777.599609375 22.400390625 800 50 800 c 0
250 600 m 2
 222.400390625 600 200 577.599609375 200 550 c 0
 200 250 l 2
 200 222.400390625 222.400390625 200 250 200 c 0
 300 200 l 2
 410.400390625 200 500 289.599609375 500 400 c 0
 500 510.400390625 410.400390625 600 300 600 c 2
 250 600 l 2
EndSplineSet
Validated: 5
EndChar

StartChar: e
Encoding: 101 101 44
Width: 800
VWidth: 0
HStem: 0 200<212.198 687.802> 300 200<212.198 687.802> 600 200<212.198 687.802>
VStem: 0 200<212.198 287.802 512.198 587.802>
CounterMasks: 1 e0
LayerCount: 2
Fore
SplineSet
50 800 m 0
 200 800 l 1
 650 800 l 2
 677.599609375 800 700 777.599609375 700 750 c 0
 700 650 l 2
 700 622.400390625 677.599609375 600 650 600 c 0
 250 600 l 2
 222.400390625 600 200 577.599609375 200 550 c 0
 200 522.400390625 222.400390625 500 250 500 c 0
 650 500 l 2
 677.599609375 500 700 477.599609375 700 450 c 0
 700 350 l 2
 700 322.400390625 677.599609375 300 650 300 c 0
 250 300 l 2
 222.400390625 300 200 277.599609375 200 250 c 0
 200 222.400390625 222.400390625 200 250 200 c 0
 650 200 l 2
 677.599609375 200 700 177.599609375 700 150 c 0
 700 50 l 2
 700 22.400390625 677.599609375 0 650 0 c 0
 50 0 l 2
 22.400390625 0 -0 22.400390625 -0 50 c 0
 0 200 l 1
 0 300 l 1
 0 500 l 1
 0 600 l 1
 0 750 l 2
 -0 777.599609375 22.400390625 800 50 800 c 0
EndSplineSet
Validated: 5
EndChar

StartChar: f
Encoding: 102 102 45
Width: 800
VWidth: 0
HStem: 0 21G<36.2002 163.8> 0 21G<36.2002 163.8> 300 200<212.198 487.802> 600 200<212.198 687.802>
VStem: -0 200<12.1976 287.802 512.198 587.802>
LayerCount: 2
Fore
SplineSet
50 800 m 0xb8
 200 800 l 1
 650 800 l 2
 677.599609375 800 700 777.599609375 700 750 c 0
 700 650 l 2
 700 622.400390625 677.599609375 600 650 600 c 0
 250 600 l 2
 222.400390625 600 200 577.599609375 200 550 c 0
 200 522.400390625 222.400390625 500 250 500 c 0
 450 500 l 2
 477.599609375 500 500 477.599609375 500 450 c 0
 500 350 l 2
 500 322.400390625 477.599609375 300 450 300 c 0
 250 300 l 2
 222.400390625 300 200 277.599609375 200 250 c 0
 200 50 l 2
 200 22.400390625 177.599609375 0 150 0 c 0
 50 0 l 2
 22.400390625 0 -0 22.400390625 -0 50 c 0
 0 300 l 1
 0 500 l 1
 0 600 l 1
 0 750 l 2
 -0 777.599609375 22.400390625 800 50 800 c 0xb8
EndSplineSet
Validated: 5
EndChar

StartChar: g
Encoding: 103 103 46
Width: 800
VWidth: 0
HStem: 0 200<322.175 487.802> 600 200<322.175 687.802>
VStem: -0 200<320.797 479.203> 500 200<212.198 387.802>
LayerCount: 2
Fore
SplineSet
400 800 m 0
 650 800 l 2
 677.599609375 800 700 777.599609375 700 750 c 0
 700 650 l 2
 700 622.400390625 677.599609375 600 650 600 c 0
 400 600 l 2
 289.599609375 600 200 510.400390625 200 400 c 0
 200 289.599609375 289.599609375 200 400 200 c 2
 450 200 l 2
 477.599609375 200 500 222.400390625 500 250 c 0
 500 350 l 2
 500 377.599609375 522.400390625 400 550 400 c 0
 650 400 l 2
 677.599609375 400 700 377.599609375 700 350 c 0
 700 50 l 2
 700 22.400390625 677.599609375 0 650 0 c 0
 500 0 l 1
 400 0 l 2
 179.200195312 0 -0 179.200195312 -0 400 c 0
 -0 620.799804688 179.200195312 800 400 800 c 0
EndSplineSet
Validated: 5
EndChar

StartChar: h
Encoding: 104 104 47
Width: 800
VWidth: 0
HStem: 0 21G<36.2002 163.8 536.2 663.8> 0 21G<36.2002 163.8 536.2 663.8> 300 200<212.198 487.802> 780 20G<36.2002 163.8 536.2 663.8> 780 20G<36.2002 163.8 536.2 663.8>
VStem: -0 200<12.1976 287.802 512.198 787.802> 500 200<12.1976 287.802 512.198 787.802>
LayerCount: 2
Fore
SplineSet
50 800 m 0xb6
 150 800 l 2
 177.599609375 800 200 777.599609375 200 750 c 0
 200 550 l 2
 200 522.400390625 222.400390625 500 250 500 c 0
 450 500 l 2
 477.599609375 500 500 522.400390625 500 550 c 0
 500 750 l 2
 500 777.599609375 522.400390625 800 550 800 c 0
 650 800 l 2
 677.599609375 800 700 777.599609375 700 750 c 0
 700 50 l 2
 700 22.400390625 677.599609375 0 650 0 c 0
 550 0 l 2
 522.400390625 0 500 22.400390625 500 50 c 0
 500 250 l 2
 500 277.599609375 477.599609375 300 450 300 c 0
 250 300 l 2
 222.400390625 300 200 277.599609375 200 250 c 0
 200 50 l 2
 200 22.400390625 177.599609375 0 150 0 c 0
 50 0 l 2
 22.400390625 0 -0 22.400390625 -0 50 c 0
 0 300 l 1
 0 500 l 1
 0 750 l 2
 -0 777.599609375 22.400390625 800 50 800 c 0xb6
EndSplineSet
Validated: 5
EndChar

StartChar: i
Encoding: 105 105 48
Width: 800
VWidth: 0
HStem: 0 200<12.1976 187.802 512.198 687.802> 600 200<12.1976 187.802 512.198 687.802>
VStem: 200 300<212.198 587.802>
LayerCount: 2
Fore
SplineSet
50 800 m 0
 200 800 l 1
 500 800 l 1
 650 800 l 2
 677.599609375 800 700 777.599609375 700 750 c 0
 700 650 l 2
 700 622.400390625 677.599609375 600 650 600 c 0
 550 600 l 2
 522.400390625 600 500 577.599609375 500 550 c 0
 500 250 l 2
 500 222.400390625 522.400390625 200 550 200 c 0
 650 200 l 2
 677.599609375 200 700 177.599609375 700 150 c 0
 700 50 l 2
 700 22.400390625 677.599609375 0 650 0 c 0
 50 0 l 2
 22.400390625 0 -0 22.400390625 -0 50 c 0
 0 150 l 2
 -0 177.599609375 22.400390625 200 50 200 c 0
 150 200 l 2
 177.599609375 200 200 222.400390625 200 250 c 0
 200 550 l 2
 200 577.599609375 177.599609375 600 150 600 c 0
 50 600 l 2
 22.400390625 600 -0 622.400390625 -0 650 c 0
 0 750 l 2
 -0 777.599609375 22.400390625 800 50 800 c 0
EndSplineSet
Validated: 5
EndChar

StartChar: j
Encoding: 106 106 49
Width: 800
VWidth: 0
HStem: 0 200<12.1976 287.802> 600 200<12.1976 287.802 512.198 687.802>
VStem: 300 200<212.198 587.802>
LayerCount: 2
Fore
SplineSet
50 800 m 0
 300 800 l 1
 500 800 l 1
 650 800 l 2
 677.599609375 800 700 777.599609375 700 750 c 0
 700 650 l 2
 700 622.400390625 677.599609375 600 650 600 c 0
 550 600 l 2
 522.400390625 600 500 577.599609375 500 550 c 0
 500 200 l 1
 500 50 l 2
 500 22.400390625 477.599609375 0 450 0 c 0
 50 0 l 2
 22.400390625 0 -0 22.400390625 -0 50 c 0
 0 150 l 2
 -0 177.599609375 22.400390625 200 50 200 c 0
 250 200 l 2
 277.599609375 200 300 222.400390625 300 250 c 0
 300 550 l 2
 300 577.599609375 277.599609375 600 250 600 c 0
 50 600 l 2
 22.400390625 600 -0 622.400390625 -0 650 c 0
 0 750 l 2
 -0 777.599609375 22.400390625 800 50 800 c 0
EndSplineSet
Validated: 5
EndChar

StartChar: k
Encoding: 107 107 50
Width: 800
VWidth: 0
HStem: 0 21G<36.2002 163.8 536.2 663.8> 0 21G<36.2002 163.8 536.2 663.8> 200 200<212.198 487.802> 500 200<212.198 500> 780 20G<36.2002 163.8 536.2 663.8> 780 20G<36.2002 163.8 536.2 663.8>
VStem: 0 200<12.1976 187.802 412.198 487.802 700 787.802> 500 200<12.1976 187.802 700 787.802>
LayerCount: 2
Fore
SplineSet
50 800 m 0xbb
 150 800 l 2
 177.599609375 800 200 777.599609375 200 750 c 0
 200 700 l 1
 500 700 l 1
 500 750 l 2
 500 777.599609375 522.400390625 800 550 800 c 0
 650 800 l 2
 677.599609375 800 700 777.599609375 700 750 c 0
 700 700 l 1
 700 550 l 2
 700 522.400390625 677.599609375 500 650 500 c 0
 250 500 l 2
 222.400390625 500 200 477.599609375 200 450 c 0
 200 422.400390625 222.400390625 400 250 400 c 0
 650 400 l 2
 677.599609375 400 700 377.599609375 700 350 c 0
 700 50 l 2
 700 22.400390625 677.599609375 0 650 0 c 0
 550 0 l 2
 522.400390625 0 500 22.400390625 500 50 c 0
 500 150 l 2
 500 177.599609375 477.599609375 200 450 200 c 0
 250 200 l 2
 222.400390625 200 200 177.599609375 200 150 c 0
 200 50 l 2
 200 22.400390625 177.599609375 0 150 0 c 0
 50 0 l 2
 22.400390625 0 -0 22.400390625 -0 50 c 0
 0 200 l 1
 0 400 l 1
 0 500 l 1
 0 700 l 1
 0 750 l 2
 -0 777.599609375 22.400390625 800 50 800 c 0xbb
EndSplineSet
Validated: 5
EndChar

StartChar: l
Encoding: 108 108 51
Width: 800
VWidth: 0
HStem: 0 200<212.198 687.802> 780 20G<36.2002 163.8> 780 20G<36.2002 163.8>
VStem: 0 200<212.198 787.802>
LayerCount: 2
Fore
SplineSet
50 800 m 0xd0
 150 800 l 2
 177.599609375 800 200 777.599609375 200 750 c 0
 200 250 l 2
 200 222.400390625 222.400390625 200 250 200 c 0
 650 200 l 2
 677.599609375 200 700 177.599609375 700 150 c 0
 700 50 l 2
 700 22.400390625 677.599609375 0 650 0 c 0
 200 0 l 1
 50 0 l 2
 22.400390625 0 -0 22.400390625 -0 50 c 0
 0 200 l 1
 0 750 l 2
 -0 777.599609375 22.400390625 800 50 800 c 0xd0
EndSplineSet
Validated: 5
EndChar

StartChar: m
Encoding: 109 109 52
Width: 800
VWidth: 0
HStem: 0 21G<36.2002 163.8 536.2 663.8> 0 21G<36.2002 163.8 536.2 663.8> 500 200<212.198 487.802> 780 20G<36.2002 163.8 536.2 663.8> 780 20G<36.2002 163.8 536.2 663.8>
VStem: -0 200<12.1976 487.802 712.198 787.802> 500 200<12.1976 487.802 712.198 787.802>
LayerCount: 2
Fore
SplineSet
50 800 m 0xb6
 150 800 l 2
 177.599609375 800 200 777.599609375 200 750 c 0
 200 722.400390625 222.400390625 700 250 700 c 0
 450 700 l 2
 477.599609375 700 500 722.400390625 500 750 c 0
 500 777.599609375 522.400390625 800 550 800 c 0
 650 800 l 2
 677.599609375 800 700 777.599609375 700 750 c 0
 700 50 l 2
 700 22.400390625 677.599609375 0 650 0 c 0
 550 0 l 2
 522.400390625 0 500 22.400390625 500 50 c 0
 500 450 l 2
 500 477.599609375 477.599609375 500 450 500 c 0
 250 500 l 2
 222.400390625 500 200 477.599609375 200 450 c 0
 200 50 l 2
 200 22.400390625 177.599609375 0 150 0 c 0
 50 0 l 2
 22.400390625 0 -0 22.400390625 -0 50 c 0
 0 500 l 1
 0 700 l 1
 0 750 l 2
 -0 777.599609375 22.400390625 800 50 800 c 0xb6
EndSplineSet
Validated: 5
EndChar

StartChar: n
Encoding: 110 110 53
Width: 800
VWidth: 0
HStem: 0 200<412.198 487.802> 780 20G<36.2002 363.8 536.2 663.8> 780 20G<36.2002 363.8 536.2 663.8>
VStem: -0 400<212.198 787.802> 500 200<212.198 787.802>
LayerCount: 2
Fore
SplineSet
50 800 m 0xd8
 200 800 l 1
 350 800 l 2
 377.599609375 800 400 777.599609375 400 750 c 0
 400 250 l 2
 400 222.400390625 422.400390625 200 450 200 c 0
 477.599609375 200 500 222.400390625 500 250 c 0
 500 750 l 2
 500 777.599609375 522.400390625 800 550 800 c 0
 650 800 l 2
 677.599609375 800 700 777.599609375 700 750 c 0
 700 200 l 1
 700 50 l 2
 700 22.400390625 677.599609375 0 650 0 c 0
 250 0 l 2
 222.400390625 0 200 22.400390625 200 50 c 0
 200 22.400390625 177.599609375 0 150 0 c 0
 50 0 l 2
 22.400390625 0 -0 22.400390625 -0 50 c 0
 0 750 l 2
 -0 777.599609375 22.400390625 800 50 800 c 0xd8
EndSplineSet
Validated: 5
EndChar

StartChar: q
Encoding: 113 113 54
Width: 800
VWidth: 0
HStem: 0 200<212.198 350 600 687.802> 600 200<212.198 387.802>
VStem: 0 200<212.198 587.802> 300 300<212.198 387.802> 400 200<400 587.802>
LayerCount: 2
Fore
SplineSet
50 800 m 0xe8
 200 800 l 1
 550 800 l 2
 577.599609375 800 600 777.599609375 600 750 c 0
 600 200 l 1
 650 200 l 2
 677.599609375 200 700 177.599609375 700 150 c 0
 700 50 l 2
 700 22.400390625 677.599609375 0 650 0 c 0
 200 0 l 1
 50 0 l 2
 22.400390625 0 -0 22.400390625 -0 50 c 0
 0 200 l 1
 0 600 l 1
 0 750 l 2
 -0 777.599609375 22.400390625 800 50 800 c 0xe8
250 600 m 2
 222.400390625 600 200 577.599609375 200 550 c 0
 200 250 l 2
 200 222.400390625 222.400390625 200 250 200 c 0
 300 200 l 1
 350 200 l 2
 322.400390625 200 300 222.400390625 300 250 c 0
 300 350 l 2xf0
 300 377.599609375 322.400390625 400 350 400 c 0
 400 400 l 1
 400 550 l 2
 400 577.599609375 377.599609375 600 350 600 c 0
 250 600 l 2
EndSplineSet
Validated: 5
EndChar

StartChar: r
Encoding: 114 114 55
Width: 800
VWidth: 0
HStem: 0 200<412.198 587.802> 0 100<612.198 687.802> 200 200<212.198 287.802 400 453.083> 600 200<212.198 453.083>
VStem: -0 200<12.1976 187.802 412.198 587.802> 400 300<12.1976 87.8024> 500 200<445.509 554.491>
LayerCount: 2
Fore
SplineSet
50 800 m 0x7c
 200 800 l 1
 400 800 l 2x7c
 565.599609375 800 700 665.599609375 700 500 c 0x7a
 700 334.400390625 565.599609375 200 400 200 c 2x7c
 550 200 l 2x9c
 577.599609375 200 600 177.599609375 600 150 c 0
 600 122.400390625 622.400390625 100 650 100 c 0
 677.599609375 100 700 77.599609375 700 50 c 0
 700 22.400390625 677.599609375 0 650 0 c 0x5c
 450 0 l 2x9c
 422.400390625 0 400 22.400390625 400 50 c 0
 400 77.599609375 377.599609375 100 350 100 c 0
 322.400390625 100 300 122.400390625 300 150 c 0
 300 177.599609375 277.599609375 200 250 200 c 0
 222.400390625 200 200 177.599609375 200 150 c 0
 200 50 l 2
 200 22.400390625 177.599609375 0 150 0 c 0
 50 0 l 2
 22.400390625 0 -0 22.400390625 -0 50 c 0
 0 750 l 2
 -0 777.599609375 22.400390625 800 50 800 c 0x7c
250 600 m 2
 222.400390625 600 200 577.599609375 200 550 c 0
 200 450 l 2
 200 422.400390625 222.400390625 400 250 400 c 0
 400 400 l 2x3c
 455.200195312 400 500 444.799804688 500 500 c 0x3a
 500 555.200195312 455.200195312 600 400 600 c 0
 250 600 l 2
EndSplineSet
Validated: 5
EndChar

StartChar: t
Encoding: 116 116 56
Width: 800
VWidth: 0
HStem: 0 21G<236.2 463.8> 0 21G<236.2 463.8> 600 200<12.1976 187.802 512.198 687.802>
VStem: 200 300<12.1976 587.802>
LayerCount: 2
Fore
SplineSet
50 800 m 0xb0
 650 800 l 2
 677.599609375 800 700 777.599609375 700 750 c 0
 700 650 l 2
 700 622.400390625 677.599609375 600 650 600 c 0
 550 600 l 2
 522.400390625 600 500 577.599609375 500 550 c 0
 500 50 l 2
 500 22.400390625 477.599609375 0 450 0 c 0
 250 0 l 2
 222.400390625 0 200 22.400390625 200 50 c 0
 200 550 l 2
 200 577.599609375 177.599609375 600 150 600 c 0
 50 600 l 2
 22.400390625 600 -0 622.400390625 -0 650 c 0
 0 750 l 2
 -0 777.599609375 22.400390625 800 50 800 c 0xb0
EndSplineSet
Validated: 5
EndChar

StartChar: u
Encoding: 117 117 57
Width: 800
VWidth: 0
HStem: 0 200<212.198 487.802> 780 20G<36.2002 163.8 536.2 663.8> 780 20G<36.2002 163.8 536.2 663.8>
VStem: 0 200<212.198 787.802> 500 200<212.198 787.802>
LayerCount: 2
Fore
SplineSet
50 800 m 0xd8
 150 800 l 2
 177.599609375 800 200 777.599609375 200 750 c 0
 200 250 l 2
 200 222.400390625 222.400390625 200 250 200 c 0
 450 200 l 2
 477.599609375 200 500 222.400390625 500 250 c 0
 500 750 l 2
 500 777.599609375 522.400390625 800 550 800 c 0
 650 800 l 2
 677.599609375 800 700 777.599609375 700 750 c 0
 700 200 l 1
 700 50 l 2
 700 22.400390625 677.599609375 0 650 0 c 0
 200 0 l 1
 50 0 l 2
 22.400390625 0 -0 22.400390625 -0 50 c 0
 0 200 l 1
 0 750 l 2
 -0 777.599609375 22.400390625 800 50 800 c 0xd8
EndSplineSet
Validated: 5
EndChar

StartChar: w
Encoding: 119 119 58
Width: 800
VWidth: 0
Flags: W
HStem: 0 21G<36.2002 663.8> 0 21G<36.2002 663.8> 780 20G<36.2002 163.8 286.2 413.8 536.2 663.8> 780 20G<36.2002 163.8 286.2 413.8 536.2 663.8>
VStem: 0 200<176.125 787.802> 250 200<176.125 787.802> 500 200<176.125 787.802>
CounterMasks: 1 0e
LayerCount: 2
Fore
SplineSet
50 800 m 0xae
 150 800 l 2
 177.599609375 800 200 777.599609375 200 750 c 0
 200 200 l 2
 200 186.200195312 211.200195312 175 225 175 c 0
 238.799804688 175 250 186.200195312 250 200 c 2
 250 750 l 2
 250 777.599609375 272.400390625 800 300 800 c 0
 400 800 l 2
 427.599609375 800 450 777.599609375 450 750 c 0
 450 200 l 2
 450 186.200195312 461.200195312 175 475 175 c 0
 488.799804688 175 500 186.200195312 500 200 c 2
 500 750 l 2
 500 777.599609375 522.400390625 800 550 800 c 0
 650 800 l 2
 677.599609375 800 700 777.599609375 700 750 c 0
 700 200 l 1
 700 50 l 2
 700 22.400390625 677.599609375 0 650 0 c 0
 50 0 l 2
 22.400390625 0 -0 22.400390625 -0 50 c 0
 0 200 l 1
 0 750 l 2
 -0 777.599609375 22.400390625 800 50 800 c 0xae
EndSplineSet
Validated: 5
EndChar

StartChar: x
Encoding: 120 120 59
Width: 800
VWidth: 0
HStem: 0 200<12.1976 187.802 512.198 687.802> 600 200<12.1976 187.802 512.198 687.802>
VStem: -0 300<12.1976 187.802 612.198 787.802> 200 300<212.198 587.802> 400 300<12.1976 187.802 612.198 787.802>
LayerCount: 2
Fore
SplineSet
50 800 m 0xe0
 250 800 l 2
 277.599609375 800 300 777.599609375 300 750 c 0
 300 650 l 2
 300 622.400390625 322.400390625 600 350 600 c 0
 377.599609375 600 400 622.400390625 400 650 c 0
 400 750 l 2
 400 777.599609375 422.400390625 800 450 800 c 0
 650 800 l 2
 677.599609375 800 700 777.599609375 700 750 c 0
 700 650 l 2xe8
 700 622.400390625 677.599609375 600 650 600 c 0
 550 600 l 2
 522.400390625 600 500 577.599609375 500 550 c 0
 500 250 l 2xd0
 500 222.400390625 522.400390625 200 550 200 c 0
 650 200 l 2
 677.599609375 200 700 177.599609375 700 150 c 0
 700 50 l 2
 700 22.400390625 677.599609375 0 650 0 c 0
 450 0 l 2
 422.400390625 0 400 22.400390625 400 50 c 0
 400 150 l 2
 400 177.599609375 377.599609375 200 350 200 c 0
 322.400390625 200 300 177.599609375 300 150 c 0
 300 50 l 2
 300 22.400390625 277.599609375 0 250 0 c 0
 50 0 l 2
 22.400390625 0 -0 22.400390625 -0 50 c 0
 0 150 l 2xe8
 -0 177.599609375 22.400390625 200 50 200 c 0
 150 200 l 2
 177.599609375 200 200 222.400390625 200 250 c 0
 200 550 l 2xd0
 200 577.599609375 177.599609375 600 150 600 c 0
 50 600 l 2
 22.400390625 600 -0 622.400390625 -0 650 c 0
 0 750 l 2
 -0 777.599609375 22.400390625 800 50 800 c 0xe0
EndSplineSet
Validated: 5
EndChar

StartChar: y
Encoding: 121 121 60
Width: 800
VWidth: 0
HStem: 0 200<12.1976 487.802> 400 200<212.198 487.802> 780 20G<36.2002 163.8 536.2 663.8> 780 20G<36.2002 163.8 536.2 663.8>
VStem: 0 200<612.198 787.802> 500 200<212.198 387.802 612.198 787.802>
LayerCount: 2
Fore
SplineSet
50 800 m 0xec
 150 800 l 2
 177.599609375 800 200 777.599609375 200 750 c 0
 200 650 l 2
 200 622.400390625 222.400390625 600 250 600 c 0
 450 600 l 2
 477.599609375 600 500 622.400390625 500 650 c 0
 500 750 l 2
 500 777.599609375 522.400390625 800 550 800 c 0
 650 800 l 2
 677.599609375 800 700 777.599609375 700 750 c 0
 700 200 l 1
 700 50 l 2
 700 22.400390625 677.599609375 0 650 0 c 0
 50 0 l 2
 22.400390625 0 -0 22.400390625 -0 50 c 0
 0 150 l 2
 -0 177.599609375 22.400390625 200 50 200 c 0
 450 200 l 2
 477.599609375 200 500 222.400390625 500 250 c 0
 500 350 l 2
 500 377.599609375 477.599609375 400 450 400 c 0
 200 400 l 1
 50 400 l 2
 22.400390625 400 -0 422.400390625 -0 450 c 0
 0 750 l 2
 -0 777.599609375 22.400390625 800 50 800 c 0xec
EndSplineSet
Validated: 5
EndChar

StartChar: z
Encoding: 122 122 61
Width: 800
VWidth: 0
HStem: 0 200<212.198 687.802> 300 200<212.198 300 400 487.802> 600 200<12.1976 487.802>
VStem: 0 200<212.198 287.802> 300 100<212.198 300 500 587.802> 500 200<512.198 587.802>
CounterMasks: 1 fc
LayerCount: 2
Fore
SplineSet
50 800 m 0
 650 800 l 2
 677.599609375 800 700 777.599609375 700 750 c 0
 700 600 l 1
 700 500 l 1
 700 350 l 2
 700 322.400390625 677.599609375 300 650 300 c 0
 400 300 l 1
 400 250 l 2
 400 222.400390625 377.599609375 200 350 200 c 0
 322.400390625 200 300 222.400390625 300 250 c 0
 300 300 l 1
 250 300 l 2
 222.400390625 300 200 277.599609375 200 250 c 0
 200 222.400390625 222.400390625 200 250 200 c 0
 300 200 l 1
 350 200 l 1
 400 200 l 1
 650 200 l 2
 677.599609375 200 700 177.599609375 700 150 c 0
 700 50 l 2
 700 22.400390625 677.599609375 0 650 0 c 0
 50 0 l 2
 22.400390625 0 -0 22.400390625 -0 50 c 0
 0 200 l 1
 0 300 l 1
 0 450 l 2
 -0 477.599609375 22.400390625 500 50 500 c 0
 300 500 l 1
 300 550 l 2
 300 577.599609375 322.400390625 600 350 600 c 0
 377.599609375 600 400 577.599609375 400 550 c 0
 400 500 l 1
 450 500 l 2
 477.599609375 500 500 522.400390625 500 550 c 0
 500 577.599609375 477.599609375 600 450 600 c 0
 400 600 l 1
 350 600 l 1
 300 600 l 1
 50 600 l 2
 22.400390625 600 -0 622.400390625 -0 650 c 0
 0 750 l 2
 -0 777.599609375 22.400390625 800 50 800 c 0
EndSplineSet
Validated: 5
EndChar

StartChar: numbersign
Encoding: 35 35 62
Width: 800
VWidth: 0
HStem: 0 21G<136.2 263.8 436.2 563.8> 0 21G<136.2 263.8 436.2 563.8> 100 200<12.1976 87.8024 312.198 387.802 612.198 687.802> 500 200<12.1976 87.8024 312.198 387.802 612.198 687.802> 780 20G<136.2 263.8 436.2 563.8> 780 20G<136.2 263.8 436.2 563.8>
VStem: 100 200<12.1976 87.8024 312.198 487.802 712.198 787.802> 400 200<12.1976 87.8024 312.198 487.802 712.198 787.802>
LayerCount: 2
Fore
SplineSet
150 800 m 0xbb
 250 800 l 2
 277.599609375 800 300 777.599609375 300 750 c 0
 300 722.400390625 322.400390625 700 350 700 c 0
 377.599609375 700 400 722.400390625 400 750 c 0
 400 777.599609375 422.400390625 800 450 800 c 0
 550 800 l 2
 577.599609375 800 600 777.599609375 600 750 c 0
 600 722.400390625 622.400390625 700 650 700 c 0
 677.599609375 700 700 677.599609375 700 650 c 0
 700 550 l 2
 700 522.400390625 677.599609375 500 650 500 c 0
 622.400390625 500 600 477.599609375 600 450 c 0
 600 350 l 2
 600 322.400390625 622.400390625 300 650 300 c 0
 677.599609375 300 700 277.599609375 700 250 c 0
 700 150 l 2
 700 122.400390625 677.599609375 100 650 100 c 0
 622.400390625 100 600 77.599609375 600 50 c 0
 600 22.400390625 577.599609375 0 550 0 c 0
 450 0 l 2
 422.400390625 0 400 22.400390625 400 50 c 0
 400 77.599609375 377.599609375 100 350 100 c 0
 322.400390625 100 300 77.599609375 300 50 c 0
 300 22.400390625 277.599609375 0 250 0 c 0
 150 0 l 2
 122.400390625 0 100 22.400390625 100 50 c 0
 100 77.599609375 77.599609375 100 50 100 c 0
 22.400390625 100 -0 122.400390625 -0 150 c 0
 0 250 l 2
 -0 277.599609375 22.400390625 300 50 300 c 0
 77.599609375 300 100 322.400390625 100 350 c 0
 100 450 l 2
 100 477.599609375 77.599609375 500 50 500 c 0
 22.400390625 500 -0 522.400390625 -0 550 c 0
 0 650 l 2
 -0 677.599609375 22.400390625 700 50 700 c 0
 77.599609375 700 100 722.400390625 100 750 c 0
 100 777.599609375 122.400390625 800 150 800 c 0xbb
350 500 m 0
 322.400390625 500 300 477.599609375 300 450 c 0
 300 350 l 2
 300 322.400390625 322.400390625 300 350 300 c 0
 377.599609375 300 400 322.400390625 400 350 c 0
 400 450 l 2
 400 477.599609375 377.599609375 500 350 500 c 0
EndSplineSet
Validated: 5
EndChar

StartChar: at
Encoding: 64 64 63
Width: 800
VWidth: 0
HStem: 0 150<162.198 687.802> 200 100<500 550> 300 100<312.198 387.802> 500 100<312.198 387.802> 650 150<162.198 537.802>
VStem: -0 150<162.198 637.802> 200 100<212.198 287.802 412.198 487.802> 400 100<412.198 487.802> 550 150<300 637.802>
LayerCount: 2
Fore
SplineSet
50 800 m 0xdf80
 150 800 l 1
 550 800 l 1
 650 800 l 2
 677.599609375 800 700 777.599609375 700 750 c 0
 700 250 l 2
 700 222.400390625 677.599609375 200 650 200 c 0
 550 200 l 1
 500 200 l 1
 450 200 l 2xdf80
 422.400390625 200 400 222.400390625 400 250 c 0
 400 277.599609375 377.599609375 300 350 300 c 0xbf80
 322.400390625 300 300 277.599609375 300 250 c 0
 300 222.400390625 277.599609375 200 250 200 c 0
 222.400390625 200 200 222.400390625 200 250 c 0
 200 550 l 2
 200 577.599609375 222.400390625 600 250 600 c 0
 300 600 l 1
 400 600 l 1
 450 600 l 2
 477.599609375 600 500 577.599609375 500 550 c 0
 500 300 l 1
 550 300 l 1
 550 600 l 2
 550 627.599609375 527.599609375 650 500 650 c 0
 200 650 l 2
 172.400390625 650 150 627.599609375 150 600 c 0
 150 200 l 2
 150 172.400390625 172.400390625 150 200 150 c 0
 650 150 l 2
 677.599609375 150 700 127.599609375 700 100 c 0
 700 50 l 2
 700 22.400390625 677.599609375 0 650 0 c 0
 150 0 l 1
 50 0 l 2
 22.400390625 0 -0 22.400390625 -0 50 c 0
 0 750 l 2
 -0 777.599609375 22.400390625 800 50 800 c 0xdf80
350 500 m 0
 322.400390625 500 300 477.599609375 300 450 c 0
 300 422.400390625 322.400390625 400 350 400 c 0xbf80
 377.599609375 400 400 422.400390625 400 450 c 0
 400 477.599609375 377.599609375 500 350 500 c 0
EndSplineSet
Validated: 5
EndChar

StartChar: question
Encoding: 63 63 64
Width: 800
VWidth: 0
HStem: 0 100<212.198 487.802> 200 300<212.198 487.802> 600 200<12.1976 487.802>
VStem: 500 200<512.198 587.802>
LayerCount: 2
Fore
SplineSet
50 800 m 0
 650 800 l 2
 677.599609375 800 700 777.599609375 700 750 c 0
 700 600 l 1
 700 500 l 1
 700 350 l 2
 700 322.400390625 677.599609375 300 650 300 c 0
 550 300 l 2
 522.400390625 300 500 277.599609375 500 250 c 0
 500 222.400390625 477.599609375 200 450 200 c 0
 250 200 l 2
 222.400390625 200 200 222.400390625 200 250 c 0
 200 300 l 1
 200 450 l 2
 200 477.599609375 222.400390625 500 250 500 c 0
 450 500 l 2
 477.599609375 500 500 522.400390625 500 550 c 0
 500 577.599609375 477.599609375 600 450 600 c 0
 50 600 l 2
 22.400390625 600 -0 622.400390625 -0 650 c 0
 0 750 l 2
 -0 777.599609375 22.400390625 800 50 800 c 0
250 100 m 0
 450 100 l 2
 477.599609375 100 500 77.599609375 500 50 c 0
 500 22.400390625 477.599609375 0 450 0 c 0
 250 0 l 2
 222.400390625 0 200 22.400390625 200 50 c 0
 200 77.599609375 222.400390625 100 250 100 c 0
EndSplineSet
Validated: 5
EndChar

StartChar: quotesingle
Encoding: 39 39 66
Width: 400
VWidth: 0
Flags: W
HStem: 780 20G<36.2002 263.8> 780 20G<36.2002 263.8>
VStem: 0 300<412.198 787.802>
LayerCount: 2
Fore
SplineSet
50 800 m 0xa0
 250 800 l 2
 277.599609375 800 300 777.599609375 300 750 c 0
 300 450 l 2
 300 422.400390625 277.599609375 400 250 400 c 0
 50 400 l 2
 22.400390625 400 0 422.400390625 0 450 c 2
 0 750 l 2
 -0 777.599609375 22.400390625 800 50 800 c 0xa0
EndSplineSet
Validated: 5
EndChar
